<?xml version="1.0" encoding="utf-8"?>
<!-- Generator: Adobe Illustrator 16.0.0, SVG Export Plug-In . SVG Version: 6.00 Build 0)  -->
<!DOCTYPE svg PUBLIC "-//W3C//DTD SVG 1.1//EN" "http://www.w3.org/Graphics/SVG/1.1/DTD/svg11.dtd">
<svg version="1.1" id="Layer_1" xmlns="http://www.w3.org/2000/svg" xmlns:xlink="http://www.w3.org/1999/xlink" x="0px" y="0px"
	 width="231.932px" height="61.635px" viewBox="0 0 231.932 61.635" enable-background="new 0 0 231.932 61.635"
	 xml:space="preserve">
<g>
	<g>
		<text transform="matrix(1 0 0 1 29.042 53.9307)" fill="#780606" font-family="'FrizQua-ReguOS'" font-size="10.6965">From Mosh Pits to Mortgages.</text>
	</g>
	<g>
		<path d="M26.048,13.458h-0.961c0.102-2.6,2.313-5.027,5.409-5.027c1.841,0,4.603,0.789,4.603,5.402v0.589l1.605-1.333
			c0-1.435,0-2.869,0-4.303h1.147c0,1.116,0,2.232,0,3.348L42.9,7.942l6.36,8.695l-5.831,5.005c6.25,2.668,3.541,9.595,7.833,13.265
			l2.745-2.124v1.222l-6.128,4.869c-2.216-1.071-3.147-2.958-3.738-4.999l-6.377,5.039c-0.794-0.615-3.572-2.58-7.103-2.58
			c-2.882,0-5.009,1.324-6.201,3.161H23.24c1.287-2.567,3.484-4.843,6.234-6.156v-7.606c-0.447,0-0.893,0-1.34,0
			c-1.615,0-2.518,0.936-2.25,2.323h-0.766c-0.332-0.752-0.514-1.573-0.514-2.394c0-3.839,2.919-4.426,4.869-4.427v-7.321
			c0-1.291-0.338-2.449-1.631-2.449C26.805,11.465,26.059,12.407,26.048,13.458z M36.705,32.349c0-5.983,0-11.968,0-17.951
			l-1.605,1.395v16.377C35.636,32.19,36.174,32.252,36.705,32.349z M37.852,25.026l6.319-5.463l-5.086-7.233l-1.233,1.069
			C37.852,17.276,37.852,21.151,37.852,25.026z M41.939,34.747l2.008-1.592c-0.854-3.363-1.096-6.928-4.791-7.841l-1.304,1.116
			c0,2.063,0,4.125,0,6.188C39.34,33.046,40.742,33.767,41.939,34.747z"/>
		<path d="M54.924,34.889l2.052-1.663c0-3.434,0-6.866,0-10.301l9.025-5.186l5.763,4.418v10.946l-8.834,5.378l-5.633-4.07
			l-1.665,1.35L54.924,34.889z M66.77,35.409V23.886l-4.608-3.073v11.522L66.77,35.409z"/>
		<path d="M80.537,31.501c1.193,2.193,3.369,2.736,4.527,2.766l2.311-1.671l0.52,0.702L82,38.474h-0.561l-6.052-4.122V22.372
			l8.274-4.612l4.247,3.405l-3.807,2.885l-3.565-2.965V31.501z"/>
		<path d="M89.302,12.939v-0.577l6.529-4.609h0.77v25.926l1.535,1.538l1.152-0.961l0.576,0.77l-4.994,3.456l-4.225-3.65
			l-1.535,0.961l-0.578-0.767l2.69-1.729V15.052C91.223,13.683,90.335,13.254,89.302,12.939z M101.408,22.541l-0.385,0.769
			l7.874,11.716l1.729-1.154l0.768,0.96l-6.145,4.035l-7.874-11.524l5.952-9.218h0.384c0.454,0.83,1.383,1.537,2.595,1.537
			c1.213,0,2.138-0.707,2.591-1.537h0.769c-0.416,2.843-1.695,5.753-4.932,5.753C103.292,23.877,102.226,23.297,101.408,22.541z"/>
		<path d="M137.823,6.944v-0.56h-0.548l-0.57-0.01v0.01c-0.053,0.612-0.232,1.161-0.496,1.646c-0.822,1.436-2.5,2.259-4.315,2.259
			c-0.644,0-1.276-0.085-1.879-0.254c-1.202-0.306-2.312-0.887-3.261-1.593c-0.316-0.232-0.623-0.485-0.896-0.74l-1.099,0.698
			l-9.888,6.237v8.052l5.604,3.662l-0.369,0.327c-0.359,0.316-0.738,0.664-1.139,1.033c-0.402,0.37-0.813,0.75-1.225,1.173
			c-0.95,0.907-1.889,1.94-2.691,3.049c-0.063,0.074-0.116,0.159-0.168,0.232c-1.193,1.698-2.109,3.513-2.195,5.573
			c-0.027,0.643,0.03,1.351,0.18,1.931l1.339-0.549c-0.052-0.158-0.095-0.315-0.127-0.484c-0.368-2.893,2.628-3.409,4.865-3.409
			c0.19,0,0.37,0.01,0.56,0.021c0.138,0.01,0.285,0.021,0.422,0.042c0.232,0.021,0.455,0.053,0.676,0.105
			c0.147,0.021,0.296,0.053,0.434,0.095c0.126,0.021,0.242,0.052,0.357,0.095c0.2,0.054,0.391,0.116,0.57,0.19
			c0.189,0.063,0.369,0.137,0.549,0.221c0.116,0.054,0.242,0.106,0.357,0.158c0.234,0.127,0.466,0.243,0.678,0.37
			c0.391,0.242,0.77,0.496,1.117,0.77c0.021,0.022,0.053,0.043,0.074,0.064c0.232,0.18,0.443,0.369,0.654,0.57
			c0.242,0.222,0.476,0.453,0.697,0.696l0.664-0.412l1.119-0.708l9.201-5.805V21.645c-1.666-1.381-3.693-2.542-5.951-3.302
			C134.246,15.546,137.812,12.115,137.823,6.944z M120.116,19.726v-6.891l0.76-0.529c0.465,0.297,0.95,0.592,1.456,0.876v8.073
			L120.116,19.726z M127.873,31.966c-0.359-0.178-0.74-0.348-1.119-0.506c-0.221-0.084-0.443-0.169-0.676-0.253
			c-0.453-0.159-0.929-0.296-1.414-0.4c-0.358-0.086-0.738-0.159-1.117-0.212c-0.57-0.074-1.162-0.116-1.774-0.116
			c-2.131,0-4.021,0.612-5.509,1.688c-0.01,0-0.01,0.011-0.02,0.011c0.537-0.696,1.139-1.352,1.74-1.974
			c1.003-1.034,2.037-1.941,2.871-2.69l2.691-2.406l1.117-0.992l2.09-1.868l0.2-0.18l0.919,0.453l0.506,0.244v9.465
			C128.21,32.135,128.041,32.051,127.873,31.966z M131.83,24.453v9.212l-0.76,0.359c-0.232-0.189-0.475-0.37-0.729-0.549
			c-0.252-0.18-0.506-0.359-0.78-0.538c-0.021-0.021-0.032-0.032-0.054-0.042v-9.583L131.83,24.453z M129.435,18.343l-1.563,1.393
			l-1.119,1.003l-2.09,1.867l-0.157,0.138l-0.96-0.654l-0.096-0.063v-8.263c0.031,0.01,0.063,0.031,0.096,0.042
			c0.357,0.169,0.738,0.327,1.117,0.475c0.043,0.021,0.095,0.033,0.148,0.054c0.252,0.094,0.517,0.189,0.791,0.264
			c0.084,0.031,0.18,0.063,0.275,0.084c0.168,0.053,0.336,0.095,0.517,0.127c0.644,0.158,1.319,0.273,2.036,0.316
			c0.264,0.021,0.527,0.032,0.803,0.032c1.74,0,3.387-0.455,4.738-1.288C132.579,15.589,130.89,17.044,129.435,18.343z"/>
		<path d="M148.66,35.619l1.328-0.72l0.577,0.77l-5.516,2.853l-4.226-3.649l-1.535,0.961l-0.577-0.768l2.689-1.73v-9.626
			c0-1.558-1.112-1.912-1.921-1.912v-0.576l6.529-6.546h0.77v4.607h4.763l-1.88,2.204h-2.883V33.72L148.66,35.619z"/>
		<path d="M152.226,34.889l2.051-1.663c0-3.434,0-6.866,0-10.301l9.025-5.186l5.761,4.418v10.946l-8.833,5.378l-5.634-4.07
			l-1.663,1.35L152.226,34.889z M164.072,35.409V23.886l-4.609-3.073v11.522L164.072,35.409z"/>
		<path d="M177.835,31.501c1.193,2.193,3.37,2.736,4.528,2.766l2.311-1.671l0.519,0.702l-5.894,5.176h-0.562l-6.051-4.122V22.372
			l8.273-4.612l4.248,3.405l-3.808,2.885l-3.565-2.965V31.501z"/>
		<path d="M186.601,12.939v-0.577l6.53-4.609h0.769v25.926l1.535,1.538l1.152-0.961l0.578,0.77l-4.995,3.456l-4.225-3.65
			l-1.536,0.961l-0.577-0.767l2.69-1.729V15.052C188.523,13.683,187.634,13.254,186.601,12.939z M198.707,22.541l-0.383,0.769
			l7.873,11.716l1.729-1.154l0.768,0.96l-6.145,4.035l-7.873-11.524l5.952-9.218h0.384c0.453,0.83,1.383,1.537,2.595,1.537
			s2.138-0.707,2.591-1.537h0.769c-0.416,2.843-1.696,5.753-4.933,5.753C200.592,23.877,199.525,23.297,198.707,22.541z"/>
	</g>
</g>
</svg>
