<svg version="1.1" id="Layer_1" xmlns="http://www.w3.org/2000/svg" xmlns:xlink="http://www.w3.org/1999/xlink" x="0px" y="0px" width="231.932px" height="70.975px" viewBox="0 0 231.932 70.975" enable-background="new 0 0 231.932 70.975" xml:space="preserve">
<g>
	<g>
		
			<text transform="matrix(1 0 0 1 23.4497 62.1045)" fill="#ff0000" font-family="'FrizQuadrataBold'" font-size="8.5652" letter-spacing="1">From Mosh Pits to Mortgages.</text>
	</g>
	<g>
		<path d="M38.494,39.545l-6.9,4.99l-5.078-3.986l-1.551,1.107l-0.662-0.887l2.879-1.992V26.594L25.63,24.6l-1.773,1.107    l-0.662-0.887l6.201-4.207l3.387,3.643l3.221-3.658h0.479c0.441,0.691,1.23,1.143,2.088,1.143c0.953,0,1.689-0.521,2.086-1.143    h1.379c-0.541,5.732-3.221,6.457-4.596,6.457c-1.012,0-2.637-0.461-4.129-1.906v13.629l1.824,1.439l2.496-1.703L38.494,39.545z" fill="#ffffff"/>
		<path d="M42.185,40.172l2.365-1.918c0-3.961,0-7.922,0-11.881l10.41-5.982l6.646,5.096v12.625l-10.189,6.203l-6.498-4.695    l-1.918,1.557L42.185,40.172z M55.849,40.77V27.48l-5.316-3.545v13.291L55.849,40.77z" fill="#ffffff"/>
		<path d="M71.724,36.266c1.377,2.527,3.887,3.154,5.225,3.188l2.664-1.926l0.6,0.809l-6.799,5.969h-0.648l-6.977-4.754V25.734    l9.541-5.32l4.898,3.928l-4.391,3.328l-4.113-3.42V36.266z" fill="#ffffff"/>
		<path d="M81.835,14.854v-0.664l7.531-5.318h0.887v29.906l1.771,1.771l1.33-1.107l0.666,0.887l-5.762,3.986l-4.873-4.209    l-1.771,1.107l-0.666-0.885l3.104-1.994V17.291C84.052,15.711,83.027,15.217,81.835,14.854z M95.798,25.93l-0.441,0.887    l9.082,13.512l1.994-1.33l0.885,1.107l-7.088,4.652l-9.082-13.291l6.867-10.633h0.441c0.523,0.957,1.596,1.773,2.992,1.773    c1.398,0,2.467-0.816,2.99-1.773h0.887c-0.48,3.279-1.957,6.635-5.689,6.635C97.974,27.469,96.742,26.801,95.798,25.93z" fill="#ffffff"/>
		<path d="M108.273,42.402c0-1.918,0.756-3.611,4.385-6.98l-3.5-2.762v-6.471l9.549-5.545c0.668,0.99,1.813,2.02,3.375,2.02    c1.213,0,2.193-0.832,2.311-1.926l0.02,0.004c0-0.002,0-0.004,0-0.004h1.305c-0.361,3.527-1.426,6.156-4.029,8.559l3.979,2.947    v6.979l-9.121,5.545c-0.623-1.105-1.785-2.162-3.424-2.162c-1.082,0-2.178,0.621-2.178,1.748c0,0.549,0.287,0.938,0.658,1.146    l-0.451,1.213C109.554,46.098,108.273,44.572,108.273,42.402z M115.484,34.637c-1.639,1.408-3.283,2.777-4.412,4.188    c0.875-0.695,2.004-1.105,3.238-1.105c2.643,0,4.543,1.676,5.396,3.551v-6.02l-2.561-2.039L115.484,34.637z M120.431,28.682    c0.666-0.57,1.357-1.244,1.979-2.123c-0.707,0.309-1.494,0.475-2.32,0.475c-2.004,0-4.023-1.047-4.973-3.4v6.02l1.912,1.953    L120.431,28.682z" fill="#ffffff"/>
		<path d="M139.494,41.012l1.531-0.828l0.662,0.887l-6.359,3.291l-4.873-4.209l-1.773,1.107l-0.664-0.885l3.1-1.996V27.277    c0-1.799-1.281-2.207-2.213-2.207v-0.664l7.531-7.551h0.885v5.314h5.494l-2.166,2.541h-3.328v14.111L139.494,41.012z" fill="#ffffff"/>
		<path d="M143.603,40.172l2.367-1.918c0-3.961,0-7.922,0-11.881l10.412-5.982l6.645,5.096v12.625l-10.189,6.203l-6.498-4.695    l-1.92,1.557L143.603,40.172z M157.267,40.77V27.48l-5.316-3.545v13.291L157.267,40.77z" fill="#ffffff"/>
		<path d="M173.146,36.266c1.377,2.527,3.885,3.154,5.221,3.188l2.664-1.926l0.602,0.809l-6.801,5.969h-0.646l-6.979-4.754V25.734    l9.543-5.32l4.898,3.928l-4.389,3.328l-4.113-3.42V36.266z" fill="#ffffff"/>
		<path d="M183.257,14.854v-0.664l7.529-5.318h0.887v29.906l1.771,1.771l1.33-1.107l0.664,0.887l-5.758,3.986l-4.875-4.209    l-1.773,1.107l-0.662-0.885l3.1-1.994V17.291C185.47,15.711,184.449,15.217,183.257,14.854z M197.22,25.93l-0.445,0.887    l9.084,13.512l1.992-1.33l0.887,1.107l-7.09,4.652l-9.08-13.291l6.867-10.633h0.443c0.521,0.957,1.594,1.773,2.992,1.773    c1.396,0,2.465-0.816,2.988-1.773h0.885c-0.48,3.279-1.957,6.635-5.688,6.635C199.392,27.469,198.164,26.801,197.22,25.93z" fill="#ffffff"/>
	</g>
</g>
</svg>